<svg width="16" height="16" viewBox="0 0 16 16" fill="none" xmlns="http://www.w3.org/2000/svg">
<g clip-path="url(#clip0_414_834)">
<path d="M8.17022 0.282715C12.3725 0.282715 15.7789 3.68913 15.7789 7.89141C15.7789 12.0937 12.3725 15.5001 8.17022 15.5001C3.96794 15.5001 0.561523 12.0937 0.561523 7.89141C0.561523 3.68913 3.96794 0.282715 8.17022 0.282715ZM8.17022 1.34413C6.43377 1.34413 4.76845 2.03393 3.54059 3.26178C2.31274 4.48964 1.62294 6.15496 1.62294 7.89141C1.62294 9.62786 2.31274 11.2932 3.54059 12.521C4.76845 13.7489 6.43377 14.4387 8.17022 14.4387C9.90667 14.4387 11.572 13.7489 12.7998 12.521C14.0277 11.2932 14.7175 9.62786 14.7175 7.89141C14.7175 6.15496 14.0277 4.48964 12.7998 3.26178C11.572 2.03393 9.90667 1.34413 8.17022 1.34413ZM7.46261 4.52913C7.75555 4.52913 7.99294 4.76728 7.99294 5.06022V8.7763H11.709C11.8463 8.7815 11.9762 8.83969 12.0715 8.93865C12.1668 9.03761 12.22 9.16964 12.22 9.30701C12.22 9.44438 12.1668 9.57641 12.0715 9.67537C11.9762 9.77433 11.8463 9.83252 11.709 9.83772H7.46261C7.32188 9.83731 7.18703 9.78123 7.08752 9.68172C6.98801 9.58221 6.93193 9.44736 6.93152 9.30663V5.06098C6.93152 4.76728 7.16891 4.52913 7.46261 4.52913Z" fill="#434CB1"/>
</g>
<defs>
<clipPath id="clip0_414_834">
<rect width="15.2174" height="15.2174" fill="white" transform="translate(0.561523 0.282715)"/>
</clipPath>
</defs>
</svg>
