<svg width="324" height="429" viewBox="0 0 324 429" fill="none" xmlns="http://www.w3.org/2000/svg">
<rect width="324" height="429" rx="7" fill="#D2D4F6"/>
<rect x="6" y="6" width="47" height="47" rx="7.8162" fill="#E8F1F6"/>
<rect x="58.8975" y="6" width="47" height="47" rx="7.8162" fill="#E8F1F6"/>
<rect x="111.794" y="6" width="47" height="47" rx="7.8162" fill="#E8F1F6"/>
<rect x="164.691" y="6" width="47" height="47" rx="7.8162" fill="#E8F1F6"/>
<rect x="217.897" y="6" width="47" height="47" rx="7.8162" fill="#E8F1F6"/>
<rect x="271" y="6" width="47" height="47" rx="7.8162" fill="#E8F1F6"/>
<rect x="6" y="59" width="47" height="47" rx="7.8162" fill="#E8F1F6"/>
<rect x="59.2056" y="58.8975" width="47" height="47" rx="7.8162" fill="#E8F1F6"/>
<rect x="112.103" y="58.8975" width="47" height="47" rx="7.8162" fill="#E8F1F6"/>
<rect x="165" y="58.8975" width="47" height="47" rx="7.8162" fill="#E8F1F6"/>
<rect x="217.897" y="58.8975" width="47" height="47" rx="7.8162" fill="#E8F1F6"/>
<rect x="270.794" y="58.8975" width="47" height="47" rx="7.8162" fill="#E8F1F6"/>
<rect x="6" y="112" width="47" height="47" rx="7.8162" fill="#E8F1F6"/>
<rect x="59" y="112" width="47" height="47" rx="7.8162" fill="#E8F1F6"/>
<rect x="112" y="112" width="47" height="47" rx="7.8162" fill="#E8F1F6"/>
<rect x="165" y="112" width="47" height="47" rx="7.8162" fill="#E8F1F6"/>
<rect x="217.897" y="112" width="47" height="47" rx="7.8162" fill="#E8F1F6"/>
<rect x="271" y="112" width="47" height="47" rx="7.8162" fill="#E8F1F6"/>
<rect x="6" y="165" width="47" height="47" rx="7.8162" fill="#E8F1F6"/>
<rect x="60" y="165" width="47" height="47" rx="7.8162" fill="#E8F1F6"/>
<rect x="112" y="165" width="47" height="47" rx="7.8162" fill="#E8F1F6"/>
<rect x="165" y="165" width="47" height="47" rx="7.8162" fill="#E8F1F6"/>
<rect x="218" y="165" width="47" height="47" rx="7.8162" fill="#E8F1F6"/>
<rect x="271" y="165" width="47" height="47" rx="7.8162" fill="#E8F1F6"/>
<rect x="6" y="217" width="47" height="47" rx="7.8162" fill="#E8F1F6"/>
<rect x="59" y="217" width="47" height="47" rx="7.8162" fill="#E8F1F6"/>
<rect x="112" y="217" width="47" height="47" rx="7.8162" fill="#E8F1F6"/>
<rect x="165" y="217" width="47" height="47" rx="7.8162" fill="#E8F1F6"/>
<rect x="218" y="217" width="47" height="47" rx="7.8162" fill="#E8F1F6"/>
<rect x="271" y="217" width="47" height="47" rx="7.8162" fill="#E8F1F6"/>
<rect x="6" y="270" width="47" height="47" rx="7.8162" fill="#E8F1F6"/>
<rect x="59" y="270" width="47" height="47" rx="7.8162" fill="#E8F1F6"/>
<rect x="112" y="270" width="47" height="47" rx="7.8162" fill="#E8F1F6"/>
<rect x="165" y="270" width="47" height="47" rx="7.8162" fill="#E8F1F6"/>
<rect x="218" y="270" width="47" height="47" rx="7.8162" fill="#E8F1F6"/>
<rect x="271" y="270" width="47" height="47" rx="7.8162" fill="#E8F1F6"/>
<rect x="6" y="323" width="47" height="47" rx="7.8162" fill="#E8F1F6"/>
<rect x="59.2056" y="323" width="47" height="47" rx="7.8162" fill="#E8F1F6"/>
<rect x="112.103" y="323" width="47" height="47" rx="7.8162" fill="#E8F1F6"/>
<rect x="165" y="323" width="47" height="47" rx="7.8162" fill="#E8F1F6"/>
<rect x="217.897" y="323" width="47" height="47" rx="7.8162" fill="#E8F1F6"/>
<rect x="271" y="323" width="47" height="47" rx="7.8162" fill="#E8F1F6"/>
<rect x="6" y="376" width="47" height="47" rx="7.8162" fill="#E8F1F6"/>
<rect x="59.2056" y="376" width="47" height="47" rx="7.8162" fill="#E8F1F6"/>
<rect x="112.103" y="376" width="47" height="47" rx="7.8162" fill="#E8F1F6"/>
<rect x="165" y="376" width="47" height="47" rx="7.8162" fill="#E8F1F6"/>
<rect x="217.897" y="376" width="47" height="47" rx="7.8162" fill="#E8F1F6"/>
<rect x="271" y="376" width="47" height="47" rx="7.8162" fill="#E8F1F6"/>
</svg>
