<svg width="103" height="18" viewBox="0 0 103 18" fill="none" xmlns="http://www.w3.org/2000/svg">
<rect x="47.9024" y="4.9942" width="2.58976" height="2.58976" fill="#434CB1" stroke="#434CB1" stroke-width="0.0528523"/>
<rect x="47.9024" y="7.58453" width="2.58976" height="2.58976" fill="white" stroke="#434CB1" stroke-width="0.0528523"/>
<rect x="50.4922" y="4.9942" width="2.58976" height="2.58976" fill="white" stroke="#434CB1" stroke-width="0.0528523"/>
<rect x="53.0821" y="4.9942" width="2.58976" height="2.58976" fill="white" stroke="#434CB1" stroke-width="0.0528523"/>
<rect x="47.9024" y="2.40484" width="2.58976" height="2.58976" fill="white" stroke="#434CB1" stroke-width="0.0528523"/>
<rect x="45.3126" y="4.9942" width="2.58976" height="2.58976" fill="white" stroke="#434CB1" stroke-width="0.0528523"/>
<path d="M3.32129 3.54102C11.4817 3.54102 13.5218 3.54102 13.5218 3.54102" stroke="#434CB1" stroke-width="2.64262"/>
<path d="M2 4.8623C2 12.8113 2 14.7985 2 14.7985" stroke="#434CB1" stroke-width="2.64262"/>
<path d="M29.0605 4.8623C29.0605 12.8113 29.0605 14.7985 29.0605 14.7985" stroke="#434CB1" stroke-width="2.64262"/>
<path d="M39.3135 4.75635C39.3135 12.7053 39.3135 14.6926 39.3135 14.6926" stroke="#434CB1" stroke-width="2.64262"/>
<path d="M64.1016 4.65088C64.1016 12.5999 64.1016 14.5871 64.1016 14.5871" stroke="#434CB1" stroke-width="2.64262"/>
<path d="M78.7939 2.27246C78.7939 10.2215 78.7939 12.2087 78.7939 12.2087" stroke="#434CB1" stroke-width="2.64262"/>
<path d="M89.1006 2.27246C89.1006 10.2215 89.1006 12.2087 89.1006 12.2087" stroke="#434CB1" stroke-width="2.64262"/>
<path d="M83.9209 4.65088C83.9209 10.6972 83.9209 12.2088 83.9209 12.2088" stroke="#434CB1" stroke-width="2.64262"/>
<path d="M81.3838 12.209C81.3838 16.1835 81.3838 17.1771 81.3838 17.1771" stroke="#434CB1" stroke-width="2.64262"/>
<path d="M86.5635 12.209C86.5635 16.1835 86.5635 17.1771 86.5635 17.1771" stroke="#434CB1" stroke-width="2.64262"/>
<path d="M16.957 2.27246C16.957 14.2382 16.957 17.2297 16.957 17.2297" stroke="#434CB1" stroke-width="2.64262"/>
<path d="M43.9648 0C43.9648 13.7839 43.9648 17.2299 43.9648 17.2299" stroke="#434CB1" stroke-width="2.64262"/>
<path d="M59.4502 0C59.4502 13.8262 59.4502 17.2827 59.4502 17.2827" stroke="#434CB1" stroke-width="2.64262"/>
<path d="M30.3818 3.54102C36.5127 3.54102 38.0454 3.54102 38.0454 3.54102" stroke="#434CB1" stroke-width="2.64262"/>
<path d="M18.1729 6.13086C20.2869 6.13086 20.8155 6.13086 20.8155 6.13086" stroke="#434CB1" stroke-width="2.64262"/>
<path d="M53.0557 11.522C55.1698 11.522 55.6983 11.522 55.6983 11.522" stroke="#434CB1" stroke-width="2.64262"/>
<path d="M50.4658 8.87891C52.5799 8.87891 53.1084 8.87891 53.1084 8.87891" stroke="#434CB1" stroke-width="2.64262"/>
<path d="M55.6982 14.1646C57.8123 14.1646 58.3409 14.1646 58.3409 14.1646" stroke="#434CB1" stroke-width="2.64262"/>
<path d="M45.2334 3.69971C47.3475 3.69971 47.876 3.69971 47.876 3.69971" stroke="#434CB1" stroke-width="2.64262"/>
<path d="M72.9277 6.0249C75.0418 6.0249 75.5704 6.0249 75.5704 6.0249" stroke="#434CB1" stroke-width="2.64262"/>
<path d="M101.31 9.8833C101.31 13.6464 101.31 14.5872 101.31 14.5872" stroke="#434CB1" stroke-width="2.64262"/>
<path d="M92.4307 6.0249C94.5448 6.0249 95.0733 6.0249 95.0733 6.0249" stroke="#434CB1" stroke-width="2.64262"/>
<path d="M20.8154 3.54102C24.7054 3.54102 25.6778 3.54102 25.6778 3.54102" stroke="#434CB1" stroke-width="2.64262"/>
<path d="M65.3701 15.9082C73.5305 15.9082 75.5706 15.9082 75.5706 15.9082" stroke="#434CB1" stroke-width="2.64262"/>
<path d="M65.3701 8.61475C73.5305 8.61475 75.5706 8.61475 75.5706 8.61475" stroke="#434CB1" stroke-width="2.64262"/>
<path d="M95.0195 3.43555C101.066 3.43555 102.577 3.43555 102.577 3.43555" stroke="#434CB1" stroke-width="2.64262"/>
<path d="M95.0195 8.61475C98.994 8.61475 99.9876 8.61475 99.9876 8.61475" stroke="#434CB1" stroke-width="2.64262"/>
<path d="M92.4307 15.9082C98.477 15.9082 99.9885 15.9082 99.9885 15.9082" stroke="#434CB1" stroke-width="2.64262"/>
<path d="M65.3701 3.43555C71.3741 3.43555 72.8751 3.43555 72.8751 3.43555" stroke="#434CB1" stroke-width="2.64262"/>
<path d="M30.3818 16.0142C36.5127 16.0142 38.0454 16.0142 38.0454 16.0142" stroke="#434CB1" stroke-width="2.64262"/>
<path d="M3.32129 16.0142C11.4817 16.0142 13.5218 16.0142 13.5218 16.0142" stroke="#434CB1" stroke-width="2.64262"/>
</svg>
