<svg width="343" height="327" viewBox="0 0 343 327" fill="none" xmlns="http://www.w3.org/2000/svg">
<rect x="99.5" y="94.5" width="49" height="49" fill="#434CB1" stroke="#434CB1"/>
<rect x="99.5" y="143.5" width="49" height="49" fill="white" stroke="#434CB1"/>
<rect x="148.5" y="94.5" width="49" height="49" fill="white" stroke="#434CB1"/>
<rect x="197.5" y="94.5" width="49" height="49" fill="white" stroke="#434CB1"/>
<rect x="99.5" y="45.5" width="49" height="49" fill="white" stroke="#434CB1"/>
<rect x="50.5" y="94.5" width="49" height="49" fill="white" stroke="#434CB1"/>
<path d="M25 0C25 260.8 25 326 25 326" stroke="#434CB1" stroke-width="50"/>
<path d="M318 0C318 261.6 318 327 318 327" stroke="#434CB1" stroke-width="50"/>
<path d="M197 218C237 218 247 218 247 218" stroke="#434CB1" stroke-width="50"/>
<path d="M148 168C188 168 198 168 198 168" stroke="#434CB1" stroke-width="50"/>
<path d="M247 268C287 268 297 268 297 268" stroke="#434CB1" stroke-width="50"/>
<path d="M49 70C89 70 99 70 99 70" stroke="#434CB1" stroke-width="50"/>
</svg>
